<svg width="224" height="224" viewBox="0 0 224 224" fill="none" xmlns="http://www.w3.org/2000/svg">
<path d="M149.914 2.6077C149.93 2.6063 149.946 2.60442 149.962 2.60351C168.243 1.57029 182.354 5.43009 196.093 17.7504C208.567 28.9359 216.871 44.4942 217.779 61.3422C218.624 77.0284 216.197 91.6132 206.964 104.609C204.079 108.67 200.692 112.374 197.369 116.077C189.992 124.297 182.335 132.258 174.865 140.391L147.21 170.857C138.375 180.499 129.604 190.246 120.38 199.519C116.123 203.799 111.77 208.45 106.753 211.847C105.618 212.614 104.457 213.342 103.272 214.029C102.087 214.717 100.879 215.364 99.6497 215.969C98.4201 216.574 97.1713 217.136 95.9032 217.655C94.6352 218.174 93.3508 218.65 92.05 219.081C90.7494 219.512 89.4355 219.899 88.1083 220.24C86.7812 220.581 85.4439 220.877 84.0965 221.127C82.7491 221.376 81.3947 221.58 80.0333 221.737C78.672 221.894 77.3069 222.004 75.938 222.067C75.5953 222.096 75.2522 222.121 74.9087 222.14C58.2779 223.148 42.6887 217.941 30.2092 206.885C17.6539 195.762 9.14325 179.355 8.14093 162.527C6.86886 141.17 13.034 125.83 27.0773 110.023C39.3708 96.1852 52.2778 82.8547 64.7324 69.1573C76.1399 56.6115 87.4312 43.913 99.2747 31.7752C105.917 24.9678 112.493 17.8277 120.458 12.5354C129.354 6.62381 139.239 3.24438 149.914 2.6077Z" fill="#565656"/>
<path d="M181.698 19.2478C192.876 24.6155 201.114 36.5872 205.121 48.0659C209.873 61.6796 209.128 79.37 202.805 92.3653C197.981 102.277 188.746 110.076 181.256 118.067C172.554 127.35 163.677 136.616 155.345 146.226C152.941 143.543 150.334 141.084 147.706 138.625C146.469 137.467 145.004 136.309 143.907 135.03C149.664 129.303 154.955 123.262 160.567 117.41L171.927 105.551C179.219 98.0285 186.2 91.0204 190.839 81.4032C198.789 64.9179 197.121 44.5206 188.009 28.8702C186.5 26.2787 181.954 22.3466 181.267 20.2152C181.198 20.0014 181.577 19.4647 181.698 19.2478Z" fill="#F1F1F1"/>
<path d="M136.439 144.225C140.644 147.635 143.948 152.074 148.07 155.524L121.788 183.567C111.112 194.908 102.934 205.952 87.1979 210.569C82.456 211.961 77.6844 212.757 72.7387 212.872C71.8757 212.9 71.0125 212.907 70.1492 212.892C69.2859 212.877 68.4234 212.841 67.5619 212.784C66.7003 212.726 65.8408 212.647 64.9832 212.546C64.1256 212.445 63.271 212.324 62.4195 212.181C61.5679 212.038 60.7205 211.873 59.8772 211.688C59.0338 211.503 58.1957 211.296 57.3627 211.069C56.5296 210.842 55.7027 210.594 54.882 210.326C54.0613 210.057 53.2478 209.769 52.4415 209.46C51.6351 209.151 50.837 208.822 50.0471 208.473C49.2571 208.124 48.4764 207.756 47.7048 207.369C46.9332 206.982 46.1718 206.575 45.4205 206.149C44.6692 205.724 43.9289 205.28 43.1997 204.817C42.4705 204.355 41.7532 203.875 41.048 203.376C40.3427 202.878 39.6503 202.363 38.9707 201.83C38.2911 201.297 37.6252 200.748 36.973 200.182C36.3208 199.616 35.6831 199.034 35.0599 198.437C27.7419 191.461 21.7101 180.963 20.1747 170.912C21.9477 172.746 23.0602 175.109 24.5711 177.154C27.8079 181.534 32.266 185.455 36.7389 188.527C48.6587 196.713 61.9829 199.57 76.18 196.892C83.0352 195.599 88.9621 192.542 94.5245 188.405C101.238 183.411 106.673 176.227 112.439 170.202C118.117 164.269 123.859 158.425 129.401 152.36C131.777 149.761 134.451 147.126 136.439 144.225Z" fill="#9E9E9E"/>
<path d="M20.1747 170.912C18.3971 165.612 17.8396 160.165 18.0313 154.6C18.4229 143.231 21.9406 131.869 28.9855 122.836C32.4402 118.406 36.5122 114.476 40.4507 110.484C43.6902 107.2 46.836 103.817 50.0347 100.493C56.5781 93.6937 62.8022 86.2814 69.7052 79.8616C74.6339 85.2755 80.4054 90.14 85.6327 95.2867C102.384 111.78 119.601 127.814 136.439 144.225C134.451 147.126 131.777 149.761 129.401 152.36C123.859 158.425 118.117 164.269 112.439 170.202C106.673 176.227 101.238 183.411 94.5245 188.405C88.9621 192.542 83.0352 195.599 76.18 196.892C61.9829 199.57 48.6587 196.713 36.7389 188.527C32.266 185.455 27.8079 181.534 24.5711 177.154C23.0602 175.109 21.9477 172.746 20.1747 170.912Z" fill="#DADADA"/>
<path d="M45.2277 135.705C46.1919 135.689 46.8222 135.752 47.6199 136.322C47.9477 136.887 48.1512 137.219 48.0375 137.907C47.6812 140.06 45.1238 142.083 43.5044 143.33C43.404 143.337 43.3712 143.341 43.261 143.336C42.6319 143.307 41.8067 142.926 41.3775 142.465C41.0817 142.147 40.9324 141.758 40.9621 141.315C41.0977 139.291 43.8308 137.021 45.2277 135.705Z" fill="#FEFEFE"/>
<path d="M45.0979 178.397C47.6435 178.862 50.0334 182.035 51.7352 183.891C51.15 185.237 50.6448 186.28 49.5103 187.257C46.8995 186.175 44.5695 182.943 42.7719 180.813C43.5124 179.79 44.0807 179.147 45.0979 178.397Z" fill="#FEFEFE"/>
<path d="M37.6774 150.027C38.1323 149.984 38.5879 149.951 39.0442 149.928C39.7994 149.897 40.2424 150.003 40.7885 150.509C41.418 153.65 40.513 157.439 40.6635 160.687C40.8171 164.004 42.0257 167.333 42.0157 170.639C42.0132 171.457 41.8976 171.684 41.3354 172.267C40.6022 172.306 39.9431 172.31 39.219 172.179C37.9117 171.278 37.4575 169.011 37.1661 167.53C36.4524 163.904 35.5506 153.212 37.6774 150.027Z" fill="#FEFEFE"/>
<path d="M77.0477 70.1483C86.8995 60.1445 96.2789 49.58 105.874 39.3232C111.554 33.252 117.074 26.741 123.793 21.7786C124.97 20.9167 126.183 20.1074 127.43 19.3507C128.677 18.5939 129.955 17.8927 131.264 17.2469C132.572 16.601 133.906 16.013 135.265 15.4829C136.624 14.9527 138.004 14.4824 139.404 14.072C154.883 9.51428 167.709 11.648 181.698 19.2479C181.577 19.4648 181.198 20.0015 181.267 20.2153C181.954 22.3467 186.5 26.2788 188.009 28.8703C197.121 44.5207 198.789 64.918 190.839 81.4033C186.2 91.0205 179.219 98.0286 171.927 105.551L160.567 117.41C154.955 123.262 149.664 129.303 143.907 135.03C138.738 130.363 133.886 125.405 128.917 120.532L107.721 99.8948C105.122 97.371 102.368 95.0063 99.7292 92.5231C92.0533 85.299 84.2536 77.8452 77.0477 70.1483Z" fill="#FEFEFE"/>
</svg>
